<mxfile host="app.diagrams.net" modified="2023-12-28T05:39:48.131Z" agent="Mozilla/5.0 (Windows NT 10.0; Win64; x64) AppleWebKit/537.36 (KHTML, like Gecko) Chrome/120.0.0.0 Safari/537.36" etag="JslubyYMEB32LRdyUKNi" version="22.1.12" type="github">
  <diagram id="prtHgNgQTEPvFCAcTncT" name="Page-1">
    <mxGraphModel dx="2528" dy="1325" grid="1" gridSize="10" guides="1" tooltips="1" connect="1" arrows="1" fold="1" page="1" pageScale="1" pageWidth="827" pageHeight="1169" math="0" shadow="0">
      <root>
        <mxCell id="0" />
        <mxCell id="1" parent="0" />
        <mxCell id="dNxyNK7c78bLwvsdeMH5-19" value="Production" style="swimlane;html=1;childLayout=stackLayout;resizeParent=1;resizeParentMax=0;horizontal=0;startSize=20;horizontalStack=0;" parent="1" vertex="1">
          <mxGeometry x="20" y="10" width="2000" height="730" as="geometry" />
        </mxCell>
        <mxCell id="dNxyNK7c78bLwvsdeMH5-20" value="Procurement" style="swimlane;html=1;startSize=20;horizontal=0;" parent="dNxyNK7c78bLwvsdeMH5-19" vertex="1">
          <mxGeometry x="20" width="1980" height="150" as="geometry" />
        </mxCell>
        <mxCell id="1sXl_HyQlBIjXCo3dABd-65" value="call for delivery&lt;br/&gt;vehicle to transport" style="points=[[0.25,0,0],[0.5,0,0],[0.75,0,0],[1,0.25,0],[1,0.5,0],[1,0.75,0],[0.75,1,0],[0.5,1,0],[0.25,1,0],[0,0.75,0],[0,0.5,0],[0,0.25,0]];shape=mxgraph.bpmn.task;whiteSpace=wrap;rectStyle=rounded;size=10;html=1;taskMarker=abstract;" parent="dNxyNK7c78bLwvsdeMH5-20" vertex="1">
          <mxGeometry x="1440" y="50" width="140" height="70" as="geometry" />
        </mxCell>
        <mxCell id="1sXl_HyQlBIjXCo3dABd-78" value="" style="points=[[0.145,0.145,0],[0.5,0,0],[0.855,0.145,0],[1,0.5,0],[0.855,0.855,0],[0.5,1,0],[0.145,0.855,0],[0,0.5,0]];shape=mxgraph.bpmn.event;html=1;verticalLabelPosition=bottom;labelBackgroundColor=#ffffff;verticalAlign=top;align=center;perimeter=ellipsePerimeter;outlineConnect=0;aspect=fixed;outline=end;symbol=terminate2;" parent="dNxyNK7c78bLwvsdeMH5-20" vertex="1">
          <mxGeometry x="1870" y="60" width="50" height="50" as="geometry" />
        </mxCell>
        <mxCell id="L38kFF3oiiwAC5vfOTqH-43" value="send to the flight" style="points=[[0.25,0,0],[0.5,0,0],[0.75,0,0],[1,0.25,0],[1,0.5,0],[1,0.75,0],[0.75,1,0],[0.5,1,0],[0.25,1,0],[0,0.75,0],[0,0.5,0],[0,0.25,0]];shape=mxgraph.bpmn.task;whiteSpace=wrap;rectStyle=rounded;size=10;html=1;taskMarker=abstract;" vertex="1" parent="dNxyNK7c78bLwvsdeMH5-20">
          <mxGeometry x="1660" y="50" width="130" height="70" as="geometry" />
        </mxCell>
        <mxCell id="L38kFF3oiiwAC5vfOTqH-44" style="edgeStyle=orthogonalEdgeStyle;rounded=0;orthogonalLoop=1;jettySize=auto;html=1;entryX=0;entryY=0.5;entryDx=0;entryDy=0;entryPerimeter=0;" edge="1" parent="dNxyNK7c78bLwvsdeMH5-20" source="1sXl_HyQlBIjXCo3dABd-65" target="L38kFF3oiiwAC5vfOTqH-43">
          <mxGeometry relative="1" as="geometry" />
        </mxCell>
        <mxCell id="L38kFF3oiiwAC5vfOTqH-45" style="edgeStyle=orthogonalEdgeStyle;rounded=0;orthogonalLoop=1;jettySize=auto;html=1;entryX=0;entryY=0.5;entryDx=0;entryDy=0;entryPerimeter=0;" edge="1" parent="dNxyNK7c78bLwvsdeMH5-20" source="L38kFF3oiiwAC5vfOTqH-43" target="1sXl_HyQlBIjXCo3dABd-78">
          <mxGeometry relative="1" as="geometry" />
        </mxCell>
        <mxCell id="dNxyNK7c78bLwvsdeMH5-21" value="Supplier" style="swimlane;html=1;startSize=20;horizontal=0;" parent="dNxyNK7c78bLwvsdeMH5-19" vertex="1">
          <mxGeometry x="20" y="150" width="1980" height="150" as="geometry" />
        </mxCell>
        <mxCell id="1sXl_HyQlBIjXCo3dABd-83" value="book food from supplier" style="points=[[0.25,0,0],[0.5,0,0],[0.75,0,0],[1,0.25,0],[1,0.5,0],[1,0.75,0],[0.75,1,0],[0.5,1,0],[0.25,1,0],[0,0.75,0],[0,0.5,0],[0,0.25,0]];shape=mxgraph.bpmn.task;whiteSpace=wrap;rectStyle=rounded;size=10;html=1;taskMarker=abstract;" parent="dNxyNK7c78bLwvsdeMH5-21" vertex="1">
          <mxGeometry x="475" y="36.25" width="125" height="77.5" as="geometry" />
        </mxCell>
        <mxCell id="1sXl_HyQlBIjXCo3dABd-2" value="Inventory" style="swimlane;html=1;startSize=20;horizontal=0;" parent="dNxyNK7c78bLwvsdeMH5-19" vertex="1">
          <mxGeometry x="20" y="300" width="1980" height="340" as="geometry" />
        </mxCell>
        <mxCell id="L38kFF3oiiwAC5vfOTqH-23" style="edgeStyle=orthogonalEdgeStyle;rounded=0;orthogonalLoop=1;jettySize=auto;html=1;" edge="1" parent="1sXl_HyQlBIjXCo3dABd-2" source="1sXl_HyQlBIjXCo3dABd-51" target="L38kFF3oiiwAC5vfOTqH-22">
          <mxGeometry relative="1" as="geometry" />
        </mxCell>
        <mxCell id="1sXl_HyQlBIjXCo3dABd-51" value="check inventory for asked food" style="points=[[0.25,0,0],[0.5,0,0],[0.75,0,0],[1,0.25,0],[1,0.5,0],[1,0.75,0],[0.75,1,0],[0.5,1,0],[0.25,1,0],[0,0.75,0],[0,0.5,0],[0,0.25,0]];shape=mxgraph.bpmn.task;whiteSpace=wrap;rectStyle=rounded;size=10;html=1;taskMarker=abstract;" parent="1sXl_HyQlBIjXCo3dABd-2" vertex="1">
          <mxGeometry x="130" y="120" width="120" height="80" as="geometry" />
        </mxCell>
        <mxCell id="L38kFF3oiiwAC5vfOTqH-2" value="is food enough?" style="points=[[0.25,0.25,0],[0.5,0,0],[0.75,0.25,0],[1,0.5,0],[0.75,0.75,0],[0.5,1,0],[0.25,0.75,0],[0,0.5,0]];shape=mxgraph.bpmn.gateway2;html=1;verticalLabelPosition=bottom;labelBackgroundColor=#ffffff;verticalAlign=top;align=center;perimeter=rhombusPerimeter;outlineConnect=0;outline=none;symbol=none;gwType=exclusive;" vertex="1" parent="1sXl_HyQlBIjXCo3dABd-2">
          <mxGeometry x="510" y="50" width="50" height="50" as="geometry" />
        </mxCell>
        <mxCell id="L38kFF3oiiwAC5vfOTqH-9" value="get food prepared" style="points=[[0.25,0,0],[0.5,0,0],[0.75,0,0],[1,0.25,0],[1,0.5,0],[1,0.75,0],[0.75,1,0],[0.5,1,0],[0.25,1,0],[0,0.75,0],[0,0.5,0],[0,0.25,0]];shape=mxgraph.bpmn.task;whiteSpace=wrap;rectStyle=rounded;size=10;html=1;taskMarker=abstract;" vertex="1" parent="1sXl_HyQlBIjXCo3dABd-2">
          <mxGeometry x="880" y="50" width="120" height="57.5" as="geometry" />
        </mxCell>
        <mxCell id="L38kFF3oiiwAC5vfOTqH-12" value="get food from supplier" style="points=[[0.25,0,0],[0.5,0,0],[0.75,0,0],[1,0.25,0],[1,0.5,0],[1,0.75,0],[0.75,1,0],[0.5,1,0],[0.25,1,0],[0,0.75,0],[0,0.5,0],[0,0.25,0]];shape=mxgraph.bpmn.task;whiteSpace=wrap;rectStyle=rounded;size=10;html=1;taskMarker=abstract;" vertex="1" parent="1sXl_HyQlBIjXCo3dABd-2">
          <mxGeometry x="697" y="46.25" width="120" height="57.5" as="geometry" />
        </mxCell>
        <mxCell id="L38kFF3oiiwAC5vfOTqH-14" style="edgeStyle=orthogonalEdgeStyle;rounded=0;orthogonalLoop=1;jettySize=auto;html=1;entryX=1;entryY=0.5;entryDx=0;entryDy=0;entryPerimeter=0;" edge="1" parent="1sXl_HyQlBIjXCo3dABd-2" source="L38kFF3oiiwAC5vfOTqH-12" target="L38kFF3oiiwAC5vfOTqH-2">
          <mxGeometry relative="1" as="geometry" />
        </mxCell>
        <mxCell id="L38kFF3oiiwAC5vfOTqH-16" value="dispatch trolly" style="points=[[0.25,0,0],[0.5,0,0],[0.75,0,0],[1,0.25,0],[1,0.5,0],[1,0.75,0],[0.75,1,0],[0.5,1,0],[0.25,1,0],[0,0.75,0],[0,0.5,0],[0,0.25,0]];shape=mxgraph.bpmn.task;whiteSpace=wrap;rectStyle=rounded;size=10;html=1;taskMarker=abstract;" vertex="1" parent="1sXl_HyQlBIjXCo3dABd-2">
          <mxGeometry x="580" y="280" width="90" height="50" as="geometry" />
        </mxCell>
        <mxCell id="L38kFF3oiiwAC5vfOTqH-17" value="is trolly ready?" style="points=[[0.25,0.25,0],[0.5,0,0],[0.75,0.25,0],[1,0.5,0],[0.75,0.75,0],[0.5,1,0],[0.25,0.75,0],[0,0.5,0]];shape=mxgraph.bpmn.gateway2;html=1;verticalLabelPosition=bottom;labelBackgroundColor=#ffffff;verticalAlign=top;align=center;perimeter=rhombusPerimeter;outlineConnect=0;outline=none;symbol=none;gwType=exclusive;" vertex="1" parent="1sXl_HyQlBIjXCo3dABd-2">
          <mxGeometry x="510" y="220" width="50" height="50" as="geometry" />
        </mxCell>
        <mxCell id="L38kFF3oiiwAC5vfOTqH-19" style="edgeStyle=orthogonalEdgeStyle;rounded=0;orthogonalLoop=1;jettySize=auto;html=1;entryX=0.5;entryY=1;entryDx=0;entryDy=0;entryPerimeter=0;" edge="1" parent="1sXl_HyQlBIjXCo3dABd-2" source="L38kFF3oiiwAC5vfOTqH-2" target="L38kFF3oiiwAC5vfOTqH-9">
          <mxGeometry relative="1" as="geometry">
            <Array as="points">
              <mxPoint x="535" y="150" />
              <mxPoint x="940" y="150" />
            </Array>
          </mxGeometry>
        </mxCell>
        <mxCell id="L38kFF3oiiwAC5vfOTqH-21" value="yes" style="edgeLabel;html=1;align=center;verticalAlign=middle;resizable=0;points=[];" vertex="1" connectable="0" parent="L38kFF3oiiwAC5vfOTqH-19">
          <mxGeometry x="0.0609" y="-2" relative="1" as="geometry">
            <mxPoint as="offset" />
          </mxGeometry>
        </mxCell>
        <mxCell id="L38kFF3oiiwAC5vfOTqH-22" value="" style="points=[[0.25,0.25,0],[0.5,0,0],[0.75,0.25,0],[1,0.5,0],[0.75,0.75,0],[0.5,1,0],[0.25,0.75,0],[0,0.5,0]];shape=mxgraph.bpmn.gateway2;html=1;verticalLabelPosition=bottom;labelBackgroundColor=#ffffff;verticalAlign=top;align=center;perimeter=rhombusPerimeter;outlineConnect=0;outline=none;symbol=none;gwType=parallel;" vertex="1" parent="1sXl_HyQlBIjXCo3dABd-2">
          <mxGeometry x="360" y="135" width="50" height="50" as="geometry" />
        </mxCell>
        <mxCell id="L38kFF3oiiwAC5vfOTqH-24" style="edgeStyle=orthogonalEdgeStyle;rounded=0;orthogonalLoop=1;jettySize=auto;html=1;entryX=0;entryY=0.5;entryDx=0;entryDy=0;entryPerimeter=0;" edge="1" parent="1sXl_HyQlBIjXCo3dABd-2" source="L38kFF3oiiwAC5vfOTqH-22" target="L38kFF3oiiwAC5vfOTqH-2">
          <mxGeometry relative="1" as="geometry" />
        </mxCell>
        <mxCell id="L38kFF3oiiwAC5vfOTqH-25" style="edgeStyle=orthogonalEdgeStyle;rounded=0;orthogonalLoop=1;jettySize=auto;html=1;entryX=0;entryY=0.5;entryDx=0;entryDy=0;entryPerimeter=0;" edge="1" parent="1sXl_HyQlBIjXCo3dABd-2" source="L38kFF3oiiwAC5vfOTqH-22" target="L38kFF3oiiwAC5vfOTqH-17">
          <mxGeometry relative="1" as="geometry" />
        </mxCell>
        <mxCell id="L38kFF3oiiwAC5vfOTqH-30" style="edgeStyle=orthogonalEdgeStyle;rounded=0;orthogonalLoop=1;jettySize=auto;html=1;entryX=0;entryY=0.75;entryDx=0;entryDy=0;entryPerimeter=0;" edge="1" parent="1sXl_HyQlBIjXCo3dABd-2" source="L38kFF3oiiwAC5vfOTqH-17" target="L38kFF3oiiwAC5vfOTqH-16">
          <mxGeometry relative="1" as="geometry">
            <Array as="points">
              <mxPoint x="535" y="318" />
            </Array>
          </mxGeometry>
        </mxCell>
        <mxCell id="L38kFF3oiiwAC5vfOTqH-32" value="no" style="edgeLabel;html=1;align=center;verticalAlign=middle;resizable=0;points=[];" vertex="1" connectable="0" parent="L38kFF3oiiwAC5vfOTqH-30">
          <mxGeometry x="0.268" relative="1" as="geometry">
            <mxPoint as="offset" />
          </mxGeometry>
        </mxCell>
        <mxCell id="L38kFF3oiiwAC5vfOTqH-31" style="edgeStyle=orthogonalEdgeStyle;rounded=0;orthogonalLoop=1;jettySize=auto;html=1;entryX=1;entryY=0.5;entryDx=0;entryDy=0;entryPerimeter=0;" edge="1" parent="1sXl_HyQlBIjXCo3dABd-2" source="L38kFF3oiiwAC5vfOTqH-16" target="L38kFF3oiiwAC5vfOTqH-17">
          <mxGeometry relative="1" as="geometry">
            <Array as="points">
              <mxPoint x="625" y="245" />
            </Array>
          </mxGeometry>
        </mxCell>
        <mxCell id="L38kFF3oiiwAC5vfOTqH-33" value="prepare trolly" style="points=[[0.25,0,0],[0.5,0,0],[0.75,0,0],[1,0.25,0],[1,0.5,0],[1,0.75,0],[0.75,1,0],[0.5,1,0],[0.25,1,0],[0,0.75,0],[0,0.5,0],[0,0.25,0]];shape=mxgraph.bpmn.task;whiteSpace=wrap;rectStyle=rounded;size=10;html=1;taskMarker=abstract;" vertex="1" parent="1sXl_HyQlBIjXCo3dABd-2">
          <mxGeometry x="704" y="235" width="113" height="60" as="geometry" />
        </mxCell>
        <mxCell id="L38kFF3oiiwAC5vfOTqH-34" style="edgeStyle=orthogonalEdgeStyle;rounded=0;orthogonalLoop=1;jettySize=auto;html=1;entryX=0.5;entryY=0;entryDx=0;entryDy=0;entryPerimeter=0;" edge="1" parent="1sXl_HyQlBIjXCo3dABd-2" source="L38kFF3oiiwAC5vfOTqH-17" target="L38kFF3oiiwAC5vfOTqH-33">
          <mxGeometry relative="1" as="geometry">
            <Array as="points">
              <mxPoint x="535" y="200" />
              <mxPoint x="761" y="200" />
            </Array>
          </mxGeometry>
        </mxCell>
        <mxCell id="L38kFF3oiiwAC5vfOTqH-35" value="yes" style="edgeLabel;html=1;align=center;verticalAlign=middle;resizable=0;points=[];" vertex="1" connectable="0" parent="L38kFF3oiiwAC5vfOTqH-34">
          <mxGeometry x="-0.2075" y="-1" relative="1" as="geometry">
            <mxPoint as="offset" />
          </mxGeometry>
        </mxCell>
        <mxCell id="L38kFF3oiiwAC5vfOTqH-36" value="" style="points=[[0.25,0.25,0],[0.5,0,0],[0.75,0.25,0],[1,0.5,0],[0.75,0.75,0],[0.5,1,0],[0.25,0.75,0],[0,0.5,0]];shape=mxgraph.bpmn.gateway2;html=1;verticalLabelPosition=bottom;labelBackgroundColor=#ffffff;verticalAlign=top;align=center;perimeter=rhombusPerimeter;outlineConnect=0;outline=none;symbol=none;gwType=parallel;" vertex="1" parent="1sXl_HyQlBIjXCo3dABd-2">
          <mxGeometry x="1090" y="135" width="50" height="50" as="geometry" />
        </mxCell>
        <mxCell id="L38kFF3oiiwAC5vfOTqH-37" style="edgeStyle=orthogonalEdgeStyle;rounded=0;orthogonalLoop=1;jettySize=auto;html=1;entryX=0.5;entryY=1;entryDx=0;entryDy=0;entryPerimeter=0;" edge="1" parent="1sXl_HyQlBIjXCo3dABd-2" source="L38kFF3oiiwAC5vfOTqH-33" target="L38kFF3oiiwAC5vfOTqH-36">
          <mxGeometry relative="1" as="geometry" />
        </mxCell>
        <mxCell id="L38kFF3oiiwAC5vfOTqH-38" style="edgeStyle=orthogonalEdgeStyle;rounded=0;orthogonalLoop=1;jettySize=auto;html=1;entryX=0.5;entryY=0;entryDx=0;entryDy=0;entryPerimeter=0;" edge="1" parent="1sXl_HyQlBIjXCo3dABd-2" source="L38kFF3oiiwAC5vfOTqH-9" target="L38kFF3oiiwAC5vfOTqH-36">
          <mxGeometry relative="1" as="geometry" />
        </mxCell>
        <mxCell id="L38kFF3oiiwAC5vfOTqH-39" value="get things assembled" style="points=[[0.25,0,0],[0.5,0,0],[0.75,0,0],[1,0.25,0],[1,0.5,0],[1,0.75,0],[0.75,1,0],[0.5,1,0],[0.25,1,0],[0,0.75,0],[0,0.5,0],[0,0.25,0]];shape=mxgraph.bpmn.task;whiteSpace=wrap;rectStyle=rounded;size=10;html=1;taskMarker=abstract;" vertex="1" parent="1sXl_HyQlBIjXCo3dABd-2">
          <mxGeometry x="1220" y="131.25" width="120" height="57.5" as="geometry" />
        </mxCell>
        <mxCell id="L38kFF3oiiwAC5vfOTqH-40" style="edgeStyle=orthogonalEdgeStyle;rounded=0;orthogonalLoop=1;jettySize=auto;html=1;entryX=0;entryY=0.5;entryDx=0;entryDy=0;entryPerimeter=0;" edge="1" parent="1sXl_HyQlBIjXCo3dABd-2" source="L38kFF3oiiwAC5vfOTqH-36" target="L38kFF3oiiwAC5vfOTqH-39">
          <mxGeometry relative="1" as="geometry" />
        </mxCell>
        <mxCell id="1sXl_HyQlBIjXCo3dABd-27" value="" style="edgeStyle=orthogonalEdgeStyle;rounded=0;orthogonalLoop=1;jettySize=auto;html=1;entryX=0.5;entryY=1;entryDx=0;entryDy=0;entryPerimeter=0;" parent="dNxyNK7c78bLwvsdeMH5-19" source="1sXl_HyQlBIjXCo3dABd-24" target="1sXl_HyQlBIjXCo3dABd-51" edge="1">
          <mxGeometry relative="1" as="geometry">
            <mxPoint x="310" y="755" as="targetPoint" />
          </mxGeometry>
        </mxCell>
        <mxCell id="L38kFF3oiiwAC5vfOTqH-6" style="edgeStyle=orthogonalEdgeStyle;rounded=0;orthogonalLoop=1;jettySize=auto;html=1;" edge="1" parent="dNxyNK7c78bLwvsdeMH5-19" source="L38kFF3oiiwAC5vfOTqH-2" target="1sXl_HyQlBIjXCo3dABd-83">
          <mxGeometry relative="1" as="geometry" />
        </mxCell>
        <mxCell id="L38kFF3oiiwAC5vfOTqH-11" value="no" style="edgeLabel;html=1;align=center;verticalAlign=middle;resizable=0;points=[];" vertex="1" connectable="0" parent="L38kFF3oiiwAC5vfOTqH-6">
          <mxGeometry x="-0.2432" y="3" relative="1" as="geometry">
            <mxPoint as="offset" />
          </mxGeometry>
        </mxCell>
        <mxCell id="L38kFF3oiiwAC5vfOTqH-13" style="edgeStyle=orthogonalEdgeStyle;rounded=0;orthogonalLoop=1;jettySize=auto;html=1;" edge="1" parent="dNxyNK7c78bLwvsdeMH5-19" source="1sXl_HyQlBIjXCo3dABd-83" target="L38kFF3oiiwAC5vfOTqH-12">
          <mxGeometry relative="1" as="geometry" />
        </mxCell>
        <mxCell id="1sXl_HyQlBIjXCo3dABd-20" value="Production" style="swimlane;html=1;startSize=20;horizontal=0;" parent="dNxyNK7c78bLwvsdeMH5-19" vertex="1">
          <mxGeometry x="20" y="640" width="1980" height="90" as="geometry" />
        </mxCell>
        <mxCell id="1sXl_HyQlBIjXCo3dABd-25" style="edgeStyle=orthogonalEdgeStyle;rounded=0;orthogonalLoop=1;jettySize=auto;html=1;" parent="1sXl_HyQlBIjXCo3dABd-20" source="1sXl_HyQlBIjXCo3dABd-23" target="1sXl_HyQlBIjXCo3dABd-24" edge="1">
          <mxGeometry relative="1" as="geometry" />
        </mxCell>
        <mxCell id="1sXl_HyQlBIjXCo3dABd-23" value="" style="points=[[0.145,0.145,0],[0.5,0,0],[0.855,0.145,0],[1,0.5,0],[0.855,0.855,0],[0.5,1,0],[0.145,0.855,0],[0,0.5,0]];shape=mxgraph.bpmn.event;html=1;verticalLabelPosition=bottom;labelBackgroundColor=#ffffff;verticalAlign=top;align=center;perimeter=ellipsePerimeter;outlineConnect=0;aspect=fixed;outline=standard;symbol=general;" parent="1sXl_HyQlBIjXCo3dABd-20" vertex="1">
          <mxGeometry x="50" y="20" width="50" height="50" as="geometry" />
        </mxCell>
        <mxCell id="1sXl_HyQlBIjXCo3dABd-24" value="receive order from S&amp;amp;M Dept." style="points=[[0.25,0,0],[0.5,0,0],[0.75,0,0],[1,0.25,0],[1,0.5,0],[1,0.75,0],[0.75,1,0],[0.5,1,0],[0.25,1,0],[0,0.75,0],[0,0.5,0],[0,0.25,0]];shape=mxgraph.bpmn.task;whiteSpace=wrap;rectStyle=rounded;size=10;html=1;taskMarker=abstract;" parent="1sXl_HyQlBIjXCo3dABd-20" vertex="1">
          <mxGeometry x="130" y="20" width="120" height="50" as="geometry" />
        </mxCell>
        <mxCell id="L38kFF3oiiwAC5vfOTqH-42" style="edgeStyle=orthogonalEdgeStyle;rounded=0;orthogonalLoop=1;jettySize=auto;html=1;entryX=0;entryY=0.5;entryDx=0;entryDy=0;entryPerimeter=0;" edge="1" parent="dNxyNK7c78bLwvsdeMH5-19" source="L38kFF3oiiwAC5vfOTqH-39" target="1sXl_HyQlBIjXCo3dABd-65">
          <mxGeometry relative="1" as="geometry" />
        </mxCell>
      </root>
    </mxGraphModel>
  </diagram>
</mxfile>
